<?xml version="1.0" standalone="no"?>
<!DOCTYPE svg PUBLIC "-//W3C//DTD SVG 20010904//EN"
 "http://www.w3.org/TR/2001/REC-SVG-20010904/DTD/svg10.dtd">
<svg version="1.0" xmlns="http://www.w3.org/2000/svg"
 width="2670.000000pt" height="2344.000000pt" viewBox="0 0 2670.000000 2344.000000"
 preserveAspectRatio="xMidYMid meet">

<g transform="translate(0.000000,2344.000000) scale(0.100000,-0.100000)"
fill="#000000" stroke="none">
<path d="M20676 19337 c-1206 -748 -1228 -762 -1189 -767 55 -8 132 -49 236
-126 155 -116 307 -283 307 -338 0 -11 -41 -93 -90 -182 -109 -197 -267 -512
-345 -689 -235 -532 -405 -1111 -421 -1435 l-5 -105 63 65 c87 90 246 298 693
905 l383 520 121 240 c308 615 705 1185 1083 1551 208 201 390 314 506 314
105 0 307 -74 414 -152 26 -19 83 -73 127 -121 101 -111 121 -159 121 -291 0
-163 -40 -317 -131 -502 -229 -469 -755 -950 -1203 -1099 -61 -21 -94 -26
-155 -24 l-76 2 -31 -104 c-39 -129 -74 -328 -74 -423 0 -89 35 -168 90 -204
41 -27 60 -26 195 19 501 166 1032 664 1825 1709 89 118 169 214 176 214 10
-1 11 3 3 17 -33 63 -369 554 -484 709 -173 232 -403 520 -415 520 -6 0 -10 5
-10 11 0 8 -104 132 -179 214 -5 6 -31 35 -58 65 -26 30 -71 78 -99 106 -28
28 -68 72 -89 98 -20 25 -42 46 -49 45 -6 0 -564 -343 -1240 -762z"/>
<path d="M21680 18923 c-130 -98 -397 -386 -562 -605 -93 -124 -221 -318 -298
-453 -34 -60 -71 -125 -82 -142 -11 -18 -16 -33 -11 -33 4 0 31 35 58 77 91
140 277 406 383 547 161 213 293 367 450 524 78 78 142 142 140 142 -2 0 -37
-26 -78 -57z"/>
<path d="M22119 18690 c-108 -71 -323 -321 -486 -565 -125 -188 -348 -584
-341 -606 6 -18 209 154 339 287 193 199 338 394 435 587 55 109 106 258 102
298 l-3 30 -46 -31z"/>
<path d="M18908 18242 c-490 -304 -528 -329 -528 -355 0 -15 -34 -116 -76
-225 -212 -549 -504 -1373 -504 -1422 0 -8 9 -1 19 15 556 899 973 1501 1479
2138 78 97 141 177 139 176 -1 0 -239 -147 -529 -327z"/>
<path d="M21379 18423 l-24 -28 28 24 c15 14 27 26 27 28 0 8 -8 1 -31 -24z"/>
<path d="M21299 18328 c-82 -98 -240 -313 -311 -423 -89 -137 -192 -315 -186
-321 3 -2 38 48 78 113 112 180 282 431 386 569 51 68 91 124 89 124 -2 0 -28
-28 -56 -62z"/>
<path d="M23386 18146 c-12 -50 -269 -508 -429 -766 -330 -532 -622 -917 -931
-1226 -273 -272 -514 -436 -749 -509 -80 -25 -98 -27 -190 -22 -120 7 -229 34
-349 86 -272 120 -468 340 -548 619 l-23 80 -140 -227 c-401 -650 -762 -1187
-865 -1284 -27 -26 -37 -29 -96 -28 -226 1 -561 274 -718 586 -67 132 -70 145
-52 231 46 223 375 1005 744 1772 49 100 87 182 85 182 -5 0 -216 -326 -338
-522 -384 -618 -789 -1367 -1067 -1973 -45 -99 -89 -188 -98 -197 -48 -55
-204 -15 -365 94 -187 127 -335 303 -422 504 l-34 77 -38 -62 c-457 -746 -844
-1328 -968 -1458 -39 -40 -45 -43 -96 -43 -183 0 -447 175 -627 415 -60 81
-162 277 -162 313 0 17 -38 -34 -123 -169 -370 -582 -619 -932 -674 -945 -59
-15 -149 3 -244 48 -233 111 -451 340 -561 589 l-40 91 16 107 c9 58 27 147
40 198 l23 91 -71 -44 c-39 -25 -159 -99 -267 -166 l-197 -121 80 -96 c44 -53
102 -130 129 -171 49 -73 50 -76 43 -130 -40 -326 -527 -1005 -1029 -1434
-115 -98 -278 -203 -350 -225 -176 -55 -489 -72 -669 -37 -285 55 -529 213
-632 410 l-26 51 -43 -42 c-38 -39 -47 -43 -92 -43 -27 0 -70 6 -94 13 l-45
14 -1373 -851 c-1140 -706 -1371 -852 -1356 -861 10 -5 57 -35 105 -66 l87
-57 229 89 c735 287 1202 396 1434 335 320 -83 626 -434 647 -742 8 -114 -14
-204 -86 -350 -162 -329 -535 -785 -1123 -1374 -377 -378 -830 -797 -1123
-1038 -31 -25 6 -11 165 66 349 169 408 187 580 179 263 -13 521 -126 700
-307 130 -131 192 -256 208 -419 20 -208 -29 -395 -183 -696 -314 -614 -940
-1442 -1648 -2179 l-191 -199 24 -20 c585 -480 1143 -859 1763 -1197 2373
-1293 5191 -1644 7832 -975 1111 281 2175 742 3149 1362 1133 722 2141 1671
2946 2773 843 1156 1463 2514 1785 3915 180 784 261 1463 272 2285 10 723 -33
1303 -147 1975 -61 361 -214 1042 -240 1069 -6 6 -14 5 -22 -1 -89 -69 -483
-113 -703 -80 -256 40 -481 156 -612 316 -25 31 -64 94 -86 140 -35 72 -41 95
-45 168 -5 93 19 210 45 220 10 4 41 -23 89 -75 57 -62 91 -89 142 -114 65
-32 70 -33 192 -32 113 0 134 4 223 33 113 37 253 95 414 171 l112 52 -33 92
c-117 322 -296 728 -487 1106 -119 236 -345 648 -369 673 -4 5 -10 -3 -14 -17z
m-2400 -4217 c151 -71 249 -299 200 -461 -7 -25 -39 -91 -70 -147 -92 -162
-355 -696 -346 -699 5 -2 530 96 1167 217 637 122 1219 228 1293 236 149 17
291 17 297 -1 6 -18 -57 -38 -237 -79 -270 -60 -867 -212 -1655 -420 -407
-108 -794 -209 -860 -226 -66 -16 -129 -33 -141 -38 -15 -7 -50 -75 -127 -248
-602 -1361 -1021 -2590 -1151 -3378 -31 -194 -34 -215 -25 -215 21 0 242 275
479 595 610 824 654 887 689 980 170 453 485 1077 912 1807 126 214 118 208
263 208 157 0 308 -44 377 -109 55 -53 53 -81 -15 -212 -165 -316 -396 -875
-562 -1361 -75 -221 -162 -525 -170 -595 l-7 -57 47 40 c100 83 406 435 625
719 328 424 594 829 825 1253 203 373 337 591 375 612 28 14 150 12 261 -5
206 -31 330 -101 330 -187 0 -13 -31 -71 -69 -129 -103 -157 -185 -303 -287
-514 -188 -390 -302 -694 -620 -1655 -249 -754 -344 -1024 -452 -1295 -170
-424 -304 -692 -488 -970 -118 -179 -203 -284 -334 -415 -176 -175 -364 -303
-572 -387 -414 -169 -732 -126 -1010 136 -101 95 -155 162 -227 281 -72 119
-111 224 -111 302 1 209 205 457 442 537 34 12 62 20 64 18 1 -1 -18 -36 -42
-77 -52 -88 -94 -212 -94 -277 0 -133 102 -179 258 -117 446 177 748 365 987
615 251 262 441 604 662 1192 53 142 283 788 283 796 0 3 -73 -116 -163 -264
-347 -575 -693 -1091 -773 -1154 -19 -15 -41 -21 -79 -21 -206 0 -519 233
-687 512 l-34 56 -89 -147 c-424 -699 -870 -1373 -998 -1508 -56 -59 -161 -52
-304 21 -240 121 -447 347 -557 607 -26 63 -27 71 -18 140 5 41 8 75 7 77 -1
1 -62 -93 -135 -210 -297 -476 -680 -1032 -728 -1056 -118 -61 -375 57 -579
265 -128 130 -282 381 -283 460 0 34 86 367 125 482 19 58 33 106 32 108 -2 1
-39 -57 -82 -130 -293 -497 -602 -960 -731 -1094 -38 -40 -44 -43 -95 -43
-213 0 -525 232 -693 516 l-42 72 -24 -42 c-39 -69 -286 -469 -413 -671 -281
-445 -619 -929 -667 -955 -33 -18 -131 -11 -203 15 -113 39 -229 119 -353 240
-120 119 -192 217 -257 353 -38 79 -42 94 -40 157 2 117 48 285 208 758 52
152 92 277 90 277 -6 0 -120 -190 -305 -510 -348 -600 -523 -881 -659 -1057
-78 -101 -115 -128 -165 -119 -155 29 -403 304 -553 614 l-55 112 -137 -207
c-255 -384 -483 -674 -726 -921 -277 -284 -518 -454 -760 -538 -276 -96 -713
65 -933 343 -126 159 -196 340 -217 568 -16 171 68 435 266 835 294 596 693
1176 1058 1540 166 165 290 261 408 317 98 45 118 48 214 28 108 -22 221 -65
300 -117 88 -56 221 -194 256 -266 26 -54 28 -64 27 -187 0 -146 -19 -236 -81
-385 -179 -437 -620 -900 -1068 -1124 -154 -76 -268 -110 -349 -104 l-64 6
-26 -87 c-53 -173 -91 -419 -77 -498 17 -89 82 -163 145 -163 44 0 216 60 323
112 364 176 744 522 1244 1128 181 220 255 318 264 350 18 62 165 392 249 560
357 715 739 1205 1078 1384 142 76 252 95 428 76 219 -23 433 -91 490 -156 16
-19 30 -36 30 -38 0 -2 5 -28 10 -57 13 -66 -1 -201 -34 -323 -20 -76 -21 -86
-7 -91 9 -4 79 -29 156 -57 227 -81 345 -152 345 -207 0 -10 -36 -92 -79 -182
-163 -338 -282 -696 -355 -1074 -44 -223 -74 -485 -57 -485 30 0 270 309 865
1114 l287 389 59 146 c175 440 466 1010 855 1674 96 164 130 215 152 224 15 7
69 12 120 13 219 1 423 -86 423 -179 0 -20 -37 -106 -99 -234 -227 -461 -483
-1122 -627 -1619 -29 -103 -57 -213 -60 -245 l-7 -57 45 38 c85 71 329 346
529 596 360 450 715 975 902 1334 158 305 278 517 296 524 37 16 157 4 236
-22 103 -35 176 -79 231 -139 55 -62 65 -105 35 -156 -54 -89 -177 -354 -254
-551 -163 -411 -356 -1015 -472 -1475 -71 -283 -84 -350 -63 -343 37 13 310
366 865 1123 l330 450 48 125 c174 451 434 1047 776 1775 152 325 275 591 274
593 -10 12 -1176 -290 -1965 -510 -239 -66 -334 -89 -362 -85 -86 11 -316 145
-419 243 -62 60 -85 101 -75 137 8 32 30 41 229 86 652 151 1582 323 2523 467
l251 39 219 460 c120 253 275 573 344 710 118 236 127 251 160 262 43 16 112
8 166 -18z"/>
<path d="M20336 12865 c-9 -26 -7 -32 5 -12 6 10 9 21 6 23 -2 3 -7 -2 -11
-11z"/>
<path d="M20285 12748 c-21 -46 -53 -116 -71 -156 -25 -53 -29 -70 -18 -64 16
9 139 291 131 299 -2 2 -21 -34 -42 -79z"/>
<path d="M20635 12493 c-49 -7 -223 -34 -385 -59 -1044 -159 -2125 -356 -2626
-479 -275 -68 -291 -74 -199 -74 87 0 188 16 380 62 294 70 699 148 2035 392
498 91 912 167 920 169 36 9 -43 3 -125 -11z"/>
<path d="M19298 12173 c7 -3 16 -2 19 1 4 3 -2 6 -13 5 -11 0 -14 -3 -6 -6z"/>
<path d="M19238 12163 c6 -2 18 -2 25 0 6 3 1 5 -13 5 -14 0 -19 -2 -12 -5z"/>
<path d="M18920 12109 c-357 -69 -747 -152 -930 -199 -440 -111 407 58 1175
234 136 32 -7 11 -245 -35z"/>
<path d="M20011 12143 c-40 -78 -463 -1037 -594 -1348 -119 -285 -287 -712
-287 -730 0 -3 7 -5 14 -5 30 0 113 174 241 505 54 140 198 489 512 1240 72
171 133 320 137 333 9 26 -9 30 -23 5z"/>
<path d="M20076 12025 c-9 -26 -7 -32 5 -12 6 10 9 21 6 23 -2 3 -7 -2 -11
-11z"/>
<path d="M20046 11955 c-9 -26 -7 -32 5 -12 6 10 9 21 6 23 -2 3 -7 -2 -11
-11z"/>
<path d="M19905 11617 c-240 -565 -440 -1061 -459 -1137 -15 -64 103 205 208
471 63 162 176 446 250 629 75 184 134 335 132 337 -1 1 -60 -133 -131 -300z"/>
<path d="M17808 11863 c7 -3 16 -2 19 1 4 3 -2 6 -13 5 -11 0 -14 -3 -6 -6z"/>
<path d="M21308 11442 c-237 -419 -456 -827 -523 -977 -69 -155 49 32 219 347
137 256 419 808 414 813 -2 3 -52 -80 -110 -183z"/>
<path d="M22840 11290 c-159 -316 -232 -479 -350 -771 -92 -229 -352 -921
-347 -925 2 -2 49 108 106 244 141 335 660 1548 705 1646 20 44 34 81 32 83
-2 3 -68 -122 -146 -277z"/>
<path d="M22942 11231 c-45 -93 -98 -207 -118 -253 -55 -126 -353 -872 -350
-876 4 -3 62 129 223 503 176 407 334 788 330 792 -2 2 -41 -73 -85 -166z"/>
<path d="M21065 10721 c-82 -159 -148 -293 -148 -297 4 -29 27 -1 81 98 62
114 226 477 220 484 -2 2 -71 -127 -153 -285z"/>
<path d="M22054 10438 c-259 -341 -470 -593 -649 -777 l-130 -134 90 61 c118
80 168 130 306 308 142 182 476 644 466 644 -3 0 -40 -46 -83 -102z"/>
<path d="M16148 9983 c-314 -556 -610 -1123 -539 -1033 31 39 129 208 234 401
142 264 410 789 404 795 -2 3 -47 -71 -99 -163z"/>
<path d="M22456 10075 c-9 -26 -7 -32 5 -12 6 10 9 21 6 23 -2 3 -7 -2 -11
-11z"/>
<path d="M17452 9452 c-125 -258 -211 -450 -314 -707 -87 -219 -221 -610 -215
-629 8 -21 184 347 216 454 47 153 205 568 320 845 55 131 99 241 97 242 -1 2
-48 -90 -104 -205z"/>
<path d="M22126 9565 c-9 -26 -7 -32 5 -12 6 10 9 21 6 23 -2 3 -7 -2 -11 -11z"/>
<path d="M15902 9256 c-83 -161 -152 -299 -154 -306 -2 -7 2 -14 7 -16 16 -6
132 214 225 425 45 100 80 185 78 187 -2 2 -72 -129 -156 -290z"/>
<path d="M20108 9238 c-257 -354 -458 -604 -632 -787 -91 -94 -96 -101 -51
-71 143 96 214 173 426 465 137 187 394 565 386 565 -3 0 -61 -78 -129 -172z"/>
<path d="M13105 9302 c-229 -200 -445 -476 -662 -842 -85 -145 -202 -362 -186
-345 6 6 56 84 113 175 215 343 421 637 568 810 30 36 103 113 161 173 58 59
103 107 100 107 -2 0 -45 -35 -94 -78z"/>
<path d="M13811 9309 c-79 -40 -231 -183 -348 -329 -319 -398 -680 -1086 -732
-1396 -11 -60 -10 -77 3 -108 8 -20 19 -36 23 -35 10 0 135 149 287 338 443
553 786 1109 832 1348 17 93 21 190 8 203 -7 7 -32 0 -73 -21z"/>
<path d="M13054 9078 l-29 -33 33 29 c30 28 37 36 29 36 -2 0 -16 -15 -33 -32z"/>
<path d="M16880 8959 c-239 -315 -458 -577 -639 -763 l-126 -129 90 61 c50 33
113 83 140 110 83 81 307 377 588 775 78 109 45 77 -53 -54z"/>
<path d="M12963 8973 c-134 -156 -284 -364 -395 -549 -113 -186 -99 -180 21
10 105 165 252 372 357 503 46 57 81 103 79 103 -2 0 -30 -30 -62 -67z"/>
<path d="M18438 8913 c-229 -325 -516 -687 -687 -867 -107 -112 -103 -115 24
-20 74 55 164 162 341 404 96 132 377 538 395 573 22 39 -1 11 -73 -90z"/>
<path d="M10613 8670 c-124 -92 -361 -341 -528 -556 -127 -163 -298 -427 -419
-649 -54 -98 -37 -76 109 140 313 462 500 700 745 948 96 97 175 177 174 177
0 0 -37 -27 -81 -60z"/>
<path d="M13966 8625 c-9 -26 -7 -32 5 -12 6 10 9 21 6 23 -2 3 -7 -2 -11 -11z"/>
<path d="M13887 8433 c-128 -311 -243 -621 -340 -918 -74 -228 -110 -346 -105
-351 2 -2 44 81 92 184 67 142 97 218 122 317 63 240 141 480 263 810 22 60
39 111 37 112 -2 2 -33 -67 -69 -154z"/>
<path d="M11024 8416 c-206 -152 -536 -610 -755 -1049 l-60 -119 33 23 c276
192 603 569 750 864 75 149 129 325 100 325 -5 0 -36 -20 -68 -44z"/>
<path d="M12470 8260 c-6 -11 -8 -20 -6 -20 3 0 10 9 16 20 6 11 8 20 6 20 -3
0 -10 -9 -16 -20z"/>
<path d="M13484 8163 c-164 -220 -373 -471 -547 -658 -62 -66 -105 -115 -97
-109 50 36 171 138 201 171 108 114 528 673 506 673 -3 0 -31 -35 -63 -77z"/>
<path d="M10324 8188 l-19 -23 23 19 c21 18 27 26 19 26 -2 0 -12 -10 -23 -22z"/>
<path d="M10232 8078 c-182 -218 -409 -554 -511 -755 -37 -74 -34 -83 5 -15
119 204 379 590 509 757 41 52 73 95 70 95 -2 0 -35 -37 -73 -82z"/>
<path d="M21280 8028 c-133 -120 -414 -322 -602 -432 -107 -62 -341 -178 -458
-226 -70 -29 -72 -30 -30 -25 102 15 250 74 412 167 293 165 485 307 658 482
82 83 90 98 20 34z"/>
<path d="M14950 7858 c-243 -342 -505 -672 -683 -863 l-112 -119 78 53 c98 68
133 102 233 231 160 206 576 800 561 800 -3 0 -37 -46 -77 -102z"/>
<path d="M11529 7013 c-13 -16 -12 -17 4 -4 16 13 21 21 13 21 -2 0 -10 -8
-17 -17z"/>
<path d="M11295 6763 c-326 -336 -617 -579 -894 -748 -35 -22 -58 -41 -53 -43
17 -5 158 36 205 60 57 29 386 328 587 535 133 136 382 415 368 412 -2 0 -97
-97 -213 -216z"/>
<path d="M17836 17535 c-9 -26 -7 -32 5 -12 6 10 9 21 6 23 -2 3 -7 -2 -11
-11z"/>
<path d="M17738 17516 c-17 -13 -305 -591 -289 -582 18 11 114 181 188 331 69
141 126 266 120 265 -1 0 -10 -7 -19 -14z"/>
<path d="M17795 17442 c-82 -170 -360 -754 -371 -782 -14 -32 -13 -34 1 -15
42 53 404 820 392 831 -2 2 -12 -13 -22 -34z"/>
<path d="M16895 16995 l-620 -384 -23 -58 c-50 -127 -188 -542 -262 -788 -120
-400 -200 -734 -200 -837 l0 -42 31 30 c77 73 300 363 804 1049 170 231 374
508 454 615 116 155 158 219 200 310 30 63 96 199 148 303 51 103 92 187 91
187 -2 0 -282 -174 -623 -385z"/>
<path d="M18498 17128 c-161 -231 -574 -844 -597 -886 -21 -40 -4 -23 56 56
59 77 716 1062 708 1062 -2 0 -77 -105 -167 -232z"/>
<path d="M22505 17159 c-289 -323 -666 -652 -979 -854 -64 -42 -101 -71 -91
-73 21 -5 149 34 201 62 48 24 432 374 579 527 147 153 406 449 393 449 -2 0
-49 -50 -103 -111z"/>
<path d="M19042 17235 c-17 -37 -14 -45 4 -12 9 16 14 31 11 33 -2 2 -9 -7
-15 -21z"/>
<path d="M18971 17080 c-124 -264 -264 -596 -365 -862 -69 -182 -147 -410
-143 -415 2 -2 41 69 86 157 58 112 98 207 135 322 65 199 163 460 267 713 43
104 77 191 75 192 -2 2 -26 -46 -55 -107z"/>
<path d="M19917 16446 c-250 -344 -469 -615 -633 -781 l-98 -99 92 63 c107 74
152 121 294 308 158 209 488 683 475 683 -3 0 -61 -78 -130 -174z"/>
<path d="M24195 16080 c-71 -38 -185 -93 -252 -121 -68 -29 -121 -54 -119 -57
6 -6 105 24 216 65 105 39 312 152 307 167 -7 20 -25 13 -152 -54z"/>
<path d="M24281 15990 c-114 -67 -114 -71 2 -14 53 27 97 52 97 56 0 14 -12 8
-99 -42z"/>
<path d="M14829 15717 l-486 -302 -51 -205 c-73 -296 -139 -649 -130 -696 8
-43 199 204 946 1219 116 158 210 287 209 286 -1 0 -221 -136 -488 -302z"/>
<path d="M16610 15768 c-98 -142 -425 -572 -522 -688 -58 -69 -147 -170 -199
-225 -91 -97 -88 -101 17 -24 70 51 101 84 197 207 162 207 572 792 555 792
-2 0 -24 -28 -48 -62z"/>
<path d="M15044 15418 c-88 -130 -429 -580 -540 -712 -59 -71 -151 -173 -204
-227 -53 -54 -91 -95 -86 -92 50 29 140 95 180 133 88 82 304 370 558 745 143
212 151 225 145 225 -2 0 -26 -33 -53 -72z"/>
<path d="M11399 13592 l-866 -537 37 -22 c134 -80 324 -65 604 49 518 210
1023 546 1184 787 l41 62 -56 87 c-30 48 -60 92 -67 99 -8 8 -226 -122 -877
-525z"/>
<path d="M12290 13599 c-71 -63 -319 -245 -455 -334 -228 -150 -439 -266 -651
-356 -114 -48 -124 -54 -69 -44 252 45 826 392 1140 688 80 76 101 103 35 46z"/>
<path d="M12365 13548 c-240 -212 -685 -532 -872 -627 -24 -12 -43 -24 -43
-27 0 -9 220 109 328 176 197 123 472 342 622 494 30 31 52 56 50 55 -3 0 -41
-32 -85 -71z"/>
<path d="M8705 11183 c-310 -71 -857 -290 -1420 -568 -636 -314 -1268 -702
-1920 -1177 -266 -193 -281 -209 -55 -60 1406 930 2594 1537 3489 1782 79 22
147 42 149 45 15 15 -148 0 -243 -22z"/>
<path d="M5485 9929 c-781 -484 -1455 -901 -1497 -928 l-77 -47 70 -184 c38
-101 71 -185 74 -188 2 -2 50 39 107 91 547 509 1891 1471 2504 1793 l122 65
60 139 c33 77 60 140 59 140 -1 -1 -641 -397 -1422 -881z"/>
<path d="M8960 10691 c-411 -85 -1092 -329 -1513 -543 l-118 -60 -58 -122
c-166 -345 -660 -1516 -962 -2279 -15 -37 -16 -46 -5 -40 74 42 607 477 856
699 523 466 1149 1098 1577 1591 319 368 518 643 488 672 -29 27 -800 -216
-1554 -490 -134 -49 -246 -89 -248 -89 -1 0 -3 4 -3 8 0 11 205 109 412 198
369 158 714 288 1063 399 116 37 219 70 230 75 40 17 -27 9 -165 -19z"/>
<path d="M9029 10093 c-13 -16 -12 -17 4 -4 9 7 17 15 17 17 0 8 -8 3 -21 -13z"/>
<path d="M8847 9877 c-472 -552 -992 -1109 -1299 -1394 -144 -134 -208 -190
-338 -296 l-35 -29 50 28 c134 73 216 143 521 448 387 387 673 698 985 1072
133 159 294 364 286 364 -2 0 -79 -87 -170 -193z"/>
<path d="M9009 9913 c-13 -16 -12 -17 4 -4 9 7 17 15 17 17 0 8 -8 3 -21 -13z"/>
<path d="M8838 9708 c-305 -360 -751 -862 -1013 -1138 -196 -208 -185 -201 36
20 350 352 706 750 985 1102 166 209 158 198 151 198 -3 0 -75 -82 -159 -182z"/>
<path d="M6275 9508 c-611 -464 -1320 -1074 -1753 -1511 l-143 -144 37 -75 37
-75 63 12 c35 6 70 18 79 25 8 7 19 10 23 6 4 -5 -21 -34 -55 -67 -35 -32 -63
-61 -63 -65 0 -27 357 -642 504 -869 l65 -100 25 55 c13 30 114 255 224 500
289 645 854 1867 963 2082 17 33 28 62 25 65 -6 7 -167 -102 -321 -218 -250
-187 -577 -466 -1074 -913 -150 -136 -276 -244 -279 -242 -11 11 59 89 257
286 438 436 1019 927 1413 1194 74 50 91 67 118 117 17 33 28 59 23 59 -4 0
-80 -55 -168 -122z"/>
<path d="M6450 9298 c-166 -340 -355 -751 -588 -1283 -346 -790 -666 -1555
-655 -1566 5 -5 120 254 257 574 565 1319 741 1705 1029 2253 103 196 158 344
127 344 -6 0 -83 -145 -170 -322z"/>
<path d="M6527 9108 c-163 -340 -209 -439 -513 -1102 -129 -280 -232 -511
-231 -513 2 -1 129 259 282 580 153 320 332 690 398 822 111 221 212 464 204
488 -1 5 -64 -118 -140 -275z"/>
<path d="M8140 7453 c-145 -25 -409 -109 -675 -216 -606 -242 -1204 -582
-1633 -928 l-104 -84 -64 -154 c-61 -143 -64 -155 -50 -176 30 -45 315 -383
457 -540 79 -88 228 -245 331 -350 l188 -190 157 160 c606 616 1268 1468 1502
1934 40 79 67 141 58 131 -3 -3 -61 -88 -129 -190 -326 -486 -779 -1068 -1170
-1505 -148 -164 -203 -219 -216 -214 -5 2 78 112 185 244 571 705 985 1273
1226 1686 114 196 130 227 123 253 -10 41 -67 114 -100 130 -34 16 -41 17 -86
9z"/>
<path d="M7896 6024 c-335 -421 -813 -980 -1080 -1262 -75 -78 -78 -84 -62
-100 16 -15 18 -15 29 -1 7 8 71 80 143 160 289 319 699 810 920 1104 100 133
208 285 202 285 -2 0 -71 -84 -152 -186z"/>
</g>
</svg>
