<?xml version="1.0" encoding="utf-8"?>
<!-- Generator: Adobe Illustrator 19.2.1, SVG Export Plug-In . SVG Version: 6.00 Build 0)  -->
<svg version="1.1" id="layer" xmlns="http://www.w3.org/2000/svg" xmlns:xlink="http://www.w3.org/1999/xlink" x="0px" y="0px"
	 viewBox="0 0 652 652" style="enable-background:new 0 0 652 652;" xml:space="preserve">
<style type="text/css">
	.st0{fill:#231815;}
</style>
<path class="st0" d="M594.6,403.9h26.2v6.6h-86.2v-6.6h26.2V240.5h-26.2v-6.6h86.2v6.6h-26.2V403.9z M501.9,326
	c0,9.1-6.5,16.5-16.6,16.5s-16.6-7.4-16.6-16.5c0-9.1,6.5-16.6,16.6-16.6S501.9,316.9,501.9,326 M371.6,323.8
	c25.6,0,30.9-19.8,30.9-41.5c0-19-1.3-41.8-30.9-41.8h-30.9v83.3H371.6z M280.7,233.9h85.3c33.6,0,73.7,6.9,73.7,48.6
	c0,37-38.6,47.8-69,47.8h-30.1v73.5h28v6.6h-88v-6.6h26.2V240.5h-26.2V233.9z M257.7,326c0,9.1-6.5,16.5-16.6,16.5
	c-10,0-16.6-7.4-16.6-16.5s6.5-16.6,16.6-16.6C251.2,309.4,257.7,316.9,257.7,326 M146.5,289.7c0-9.5-1.3-18.5-4-26.4
	c-5.3-16.1-16.1-26.7-39.4-26.7c-23.5,0-34.9,10.6-39.6,26.7c-2.4,7.9-4,16.9-4,26.4v57.6c0,10.3,0.5,20.4,2.9,29.6
	c4.8,18.2,15.9,30.9,40.7,30.9c25.1,0,35.9-12.7,40.7-30.9c2.4-9.3,2.6-19.3,2.6-29.6V289.7z M20.7,317.7
	c0-43.6,38.3-87.7,82.5-87.7c44.1,0,82.2,44.1,82.2,87.7c0,48.4-29.9,96.7-82.2,96.7C50.8,414.4,20.7,366.1,20.7,317.7"/>
</svg>
