<?xml version="1.0" standalone="no"?>
<!DOCTYPE svg PUBLIC "-//W3C//DTD SVG 20010904//EN"
 "http://www.w3.org/TR/2001/REC-SVG-20010904/DTD/svg10.dtd">
<svg version="1.0" xmlns="http://www.w3.org/2000/svg"
 width="197.000000pt" height="40.000000pt" viewBox="0 0 197.000000 40.000000"
 preserveAspectRatio="xMidYMid meet">

<g transform="translate(0.000000,40.000000) scale(0.100000,-0.100000)"
fill="#000000" stroke="none">
<path d="M85 386 c-47 -21 -70 -52 -70 -98 0 -51 32 -78 118 -102 83 -23 107
-40 107 -75 0 -65 -83 -89 -165 -47 -41 21 -52 23 -63 13 -16 -17 10 -43 65
-63 110 -39 213 12 213 106 0 47 -43 84 -128 109 -100 30 -127 65 -83 105 32
29 81 30 132 4 43 -22 47 -23 57 -7 13 21 3 31 -51 54 -44 18 -92 19 -132 1z"/>
<path d="M370 200 c0 -183 1 -190 20 -190 19 0 20 7 20 104 0 102 0 104 28
122 36 24 90 24 108 -1 10 -13 14 -50 14 -122 0 -96 1 -103 20 -103 19 0 20 7
20 114 0 99 -3 117 -21 140 -26 33 -88 36 -136 6 l-33 -20 0 70 c0 63 -2 70
-20 70 -19 0 -20 -7 -20 -190z"/>
<path d="M1030 200 c0 -183 1 -190 20 -190 19 0 20 7 20 190 0 183 -1 190 -20
190 -19 0 -20 -7 -20 -190z"/>
<path d="M1170 200 c0 -183 1 -190 20 -190 19 0 20 7 20 190 0 183 -1 190 -20
190 -19 0 -20 -7 -20 -190z"/>
<path d="M1878 268 c2 -15 5 -28 7 -28 2 0 5 13 7 28 2 17 -1 29 -7 29 -6 0
-9 -12 -7 -29z"/>
<path d="M744 271 c-40 -25 -69 -95 -61 -148 13 -76 79 -127 154 -120 52 5 95
31 87 52 -5 13 -9 13 -34 0 -48 -25 -107 -19 -135 11 -14 15 -25 35 -25 45 0
17 10 19 110 19 l110 0 0 25 c0 39 -25 89 -55 113 -36 28 -108 30 -151 3z
m137 -38 c10 -10 21 -30 24 -45 l7 -28 -91 0 c-90 0 -91 0 -91 24 0 15 12 35
32 51 26 22 39 26 67 21 19 -3 43 -13 52 -23z"/>
<path d="M1340 273 c-14 -9 -27 -18 -29 -19 -2 -2 -1 -10 2 -18 5 -12 12 -11
44 5 68 35 123 11 123 -53 0 -38 0 -39 -22 -24 -35 25 -110 21 -135 -6 -45
-49 -36 -115 18 -143 35 -19 61 -19 104 -1 19 8 35 11 35 5 0 -5 9 -9 20 -9
19 0 20 7 20 115 0 110 -1 117 -25 140 -19 20 -34 25 -77 25 -33 0 -63 -6 -78
-17z m121 -133 c28 -15 26 -74 -3 -94 -51 -36 -118 -8 -118 49 0 22 6 38 18
44 22 14 78 14 103 1z"/>
<path d="M1653 256 c-34 -31 -37 -39 -40 -97 -3 -52 0 -70 17 -97 39 -62 146
-81 194 -33 28 29 8 51 -25 27 -34 -23 -83 -20 -115 7 -20 18 -28 35 -31 74
-5 45 -2 54 25 84 23 26 37 33 65 33 20 0 44 -8 55 -17 14 -13 21 -14 30 -5 7
7 12 15 12 20 0 16 -61 38 -105 38 -38 0 -52 -6 -82 -34z"/>
<path d="M1957 283 c-3 -5 -1 -17 4 -28 7 -17 8 -17 8 8 1 27 -4 34 -12 20z"/>
<path d="M1936 257 c3 -10 9 -15 12 -12 3 3 0 11 -7 18 -10 9 -11 8 -5 -6z"/>
</g>
</svg>
