<svg xmlns="http://www.w3.org/2000/svg" viewBox="0 0 446.5247 244.0836"><defs><style>.cls-1{fill:none;}.cls-2{fill:#e11f26;}.cls-3{fill:#fff;}.cls-4{fill:#0a3049;}</style></defs><g id="Layer_2" data-name="Layer 2"><g id="artwork"><rect class="cls-1" width="446.5247" height="244.0836"/><path class="cls-2" d="M267.1675,42.3571H179.4018v87.7657h87.7657V42.3571Z"/><path class="cls-3" d="M217.8,105.44a2.7456,2.7456,0,0,1-2.6021-3.6105L226.1681,68.917a2.7429,2.7429,0,0,1,5.2041,1.7356l-10.9707,32.9121A2.7429,2.7429,0,0,1,217.8,105.44Z"/><path class="cls-3" d="M201.3434,105.44a2.7456,2.7456,0,0,1-2.6021-3.6105L209.7121,68.917a2.7429,2.7429,0,0,1,5.2041,1.7356l-10.9707,32.9121A2.743,2.743,0,0,1,201.3434,105.44Z"/><path class="cls-3" d="M234.2555,105.44a2.7455,2.7455,0,0,1-2.602-3.6105L242.6242,68.917a2.7429,2.7429,0,0,1,5.2041,1.7356l-10.9707,32.9121A2.7429,2.7429,0,0,1,234.2555,105.44Z"/><path class="cls-4" d="M335.5064,167.46c-3.868.0038-7.23.9472-9.416,3.0065v-.6406a2.3679,2.3679,0,1,0-4.7358,0v28.43a2.3679,2.3679,0,1,0,4.7358,0V182.5764c0-7.0313,2.3314-10.371,9.3536-10.38a2.51,2.51,0,0,0,2.3991-2.3381A2.3564,2.3564,0,0,0,335.5064,167.46Z"/><path class="cls-4" d="M110.0806,167.4574a13.8734,13.8734,0,0,0-9.1409,3.0094v-14.85a2.3679,2.3679,0,1,0-4.7358,0v42.6393a2.3679,2.3679,0,1,0,4.7358,0v-17.63c.0069-.8626.3272-8.4321,9.1409-8.4321,7.8355,0,8.1361,7.3752,8.1442,8.2055v17.8564a2.3679,2.3679,0,1,0,4.7358,0V180.3993C122.9606,175.9219,120.269,167.4574,110.0806,167.4574Z"/><path class="cls-4" d="M186.52,195.8875c-3.9993,0-5.5579-1.7554-5.5579-6.2628V172.1938H186.52a2.3682,2.3682,0,0,0,0-4.7364h-5.5579v-5.16a2.3679,2.3679,0,1,0-4.7357,0v5.16h-3.7033a2.3682,2.3682,0,0,0,0,4.7364h3.7033v17.4309c0,9.57,6.4492,10.9992,10.2936,10.9992a2.3682,2.3682,0,0,0,0-4.7364Z"/><path class="cls-4" d="M209.3516,201.7409a12.4957,12.4957,0,0,1-12.4211-11.5427,2.3683,2.3683,0,0,1,4.7243-.3423,7.7178,7.7178,0,1,0,7.6968-8.2887,2.3682,2.3682,0,0,1,0-4.7364,6.3553,6.3553,0,1,0-6.336-6.8248,2.3683,2.3683,0,0,1-4.7242-.3423,11.091,11.091,0,1,1,18.1164,9.3642,12.4522,12.4522,0,0,1-7.0562,22.713Z"/><path class="cls-4" d="M262.14,200.6239a2.3688,2.3688,0,0,1-2.2245-1.5565l-8.1107-22.225-7.9165,22.2088a2.37,2.37,0,0,1-2.2211,1.5727h-.0092a2.3687,2.3687,0,0,1-2.2245-1.5565l-10.3711-28.4185a2.368,2.368,0,1,1,4.449-1.6235l8.12,22.2505,7.8263-21.9521a2.3677,2.3677,0,0,1,3.7553-1.3645,2.4025,2.4025,0,0,1,.8359,1.2188l8.0645,22.0978,7.9223-22.2227a2.3679,2.3679,0,1,1,4.4606,1.5911l-10.126,28.4069a2.37,2.37,0,0,1-2.2211,1.5727Z"/><path class="cls-4" d="M75.629,200.6239a2.3689,2.3689,0,0,1-2.2245-1.5565l-8.1107-22.225-7.9165,22.2088a2.37,2.37,0,0,1-2.221,1.5727H55.147a2.3689,2.3689,0,0,1-2.2245-1.5565L42.5514,170.6489A2.368,2.368,0,1,1,47,169.0254l8.12,22.2505,7.8263-21.9521a2.3677,2.3677,0,0,1,3.7553-1.3645,2.4027,2.4027,0,0,1,.836,1.2188l8.0644,22.0978,7.9223-22.2227a2.3679,2.3679,0,1,1,4.4606,1.5911l-10.126,28.4069a2.37,2.37,0,0,1-2.221,1.5727Z"/><path class="cls-4" d="M296.57,200.6239a16.5775,16.5775,0,1,1,16.5752-16.5775A16.5958,16.5958,0,0,1,296.57,200.6239Zm0-28.4185a11.8411,11.8411,0,1,0,11.8394,11.841A11.8542,11.8542,0,0,0,296.57,172.2054Z"/><path class="cls-4" d="M371.22,153.2482a2.3674,2.3674,0,0,0-2.3678,2.3682V172.241a15.3679,15.3679,0,0,0-11.0625-4.772c-8.7108,0-15.7983,7.4376-15.7983,16.5774s7.0875,16.5775,15.7983,16.5775a15.3679,15.3679,0,0,0,11.0625-4.772v2.4038a2.3679,2.3679,0,1,0,4.7357,0V155.6164A2.3674,2.3674,0,0,0,371.22,153.2482Zm-13.43,42.6393c-6.1,0-11.0625-5.3123-11.0625-11.8411s4.9624-11.841,11.0625-11.841,11.0625,5.3123,11.0625,11.841S363.89,195.8875,357.79,195.8875Z"/><path class="cls-4" d="M159.6124,167.469a2.3674,2.3674,0,0,0-2.3679,2.3682v2.4353a15.3727,15.3727,0,0,0-11.0983-4.8035c-8.7108,0-15.7983,7.4376-15.7983,16.5774s7.0875,16.5775,15.7983,16.5775a15.3727,15.3727,0,0,0,11.0983-4.8035s.1762-.4387,0,2.4353a2.3679,2.3679,0,1,0,4.7358,0V169.8372A2.3674,2.3674,0,0,0,159.6124,167.469Zm-13.4662,28.4185c-6.1,0-11.0625-5.3123-11.0625-11.8411s4.9624-11.841,11.0625-11.841,11.0613,5.3123,11.0613,11.841S152.2451,195.8875,146.1462,195.8875Z"/><path class="cls-4" d="M393.2684,200.6018c-4.9319,0-9-2.1231-11.16-5.8257a2.5281,2.5281,0,0,1,.632-3.2748,2.0139,2.0139,0,0,1,2.9534.703,9.19,9.19,0,0,0,7.6056,4.0642c3.955,0,6.4761-1.6691,6.4761-4.3336,0-2.6729-2.91-3.7911-7.3206-5.82-4.9668-2.2845-9.7916-3.8937-9.8824-9.9081-.0607-4.0171,4.0579-8.3529,10.3381-8.73a12.6831,12.6831,0,0,1,9.6562,3.43,2.5818,2.5818,0,0,1,.1387,3.3464,1.9968,1.9968,0,0,1-3.0171.155c-4.8934-4.5825-12.794-2.4191-12.7945,1.7987,0,2.563,3.61,3.983,7.19,5.59,3.4922,1.5683,10.0788,4.0382,10.0788,10.1377C404.1622,195.8723,400.7281,200.6018,393.2684,200.6018Z"/></g></g></svg>